<svg xmlns="http://www.w3.org/2000/svg" version="1.1" xmlns:xlink="http://www.w3.org/1999/xlink" viewBox="0 0 700 700" style="overflow: hidden; display: block;" width="700" height="700"><defs></defs><g id="two-0" transform="matrix(1 0 0 1 0 0)" opacity="1"><path transform="matrix(1 0 0 1 350 350)" id="two-706" d="M 311.743867 129.128538 C 293.773773 168.913695 278.329026 218.525894 240.760134 240.760134 C 201.668134 263.895789 148.741553 246.973244 103.393198 249.613261 C 69.285114 251.59891 33.205295 246.944108 0 254.988518 C -45.684351 266.05614 -84.107093 324.28582 -129.862541 313.515907 C -171.788194 303.647451 -182.322859 243.231336 -212.44141 212.441409 C -242.214552 182.004593 -287.87451 164.674604 -310.533088 128.627016 C -333.899178 91.453845 -358.015437 41.793959 -344.558701 0 C -329.453158 -46.914827 -251.614874 -51.034019 -229.294114 -94.976732 C -210.296564 -132.377067 -252.598016 -193.312811 -221.877401 -221.877401 C -190.275957 -251.261003 -129.826831 -200.912268 -91.128855 -220.004518 C -45.958791 -242.289873 -50.146326 -337.721652 -0.000001 -342.445832 C 45.841061 -346.764421 66.069109 -275.883901 102.743107 -248.043805 C 130.478189 -226.989452 170.43778 -219.420948 192.395077 -192.395078 C 214.082405 -165.701497 207.83377 -122.281429 228.063664 -94.467063 C 257.876958 -53.476346 333.558696 -48.221525 349.171383 -0.000001 C 362.837421 42.209083 330.00664 88.695402 311.743867 129.128538 Z " fill="#ff9c07" stroke="undefined" stroke-width="1" stroke-opacity="1" fill-opacity="1" visibility="visible" stroke-linecap="butt" stroke-linejoin="miter" stroke-miterlimit="4"></path></g></svg>